<svg xmlns="http://www.w3.org/2000/svg" xmlns:xlink="http://www.w3.org/1999/xlink" width="2000" zoomAndPan="magnify" viewBox="0 0 1500 449.999984" height="600" preserveAspectRatio="xMidYMid meet" version="1.2"><defs/><g id="8bded9afa9"><g style="fill:#ffffff;fill-opacity:1;"><g transform="translate(73.472431, 348.502571)"><path style="stroke:none" d="M 82.609375 4.53125 C 72.046875 4.53125 62.363281 3.585938 53.5625 1.703125 C 44.757812 -0.179688 37.53125 -2.253906 31.875 -4.515625 C 26.21875 -6.785156 23.390625 -8.046875 23.390625 -8.296875 L 21.5 -12.078125 C 21.75 -13.578125 22.25 -17.34375 23 -23.375 C 23.757812 -29.414062 24.453125 -37.273438 25.078125 -46.953125 C 25.710938 -56.640625 26.03125 -66.890625 26.03125 -77.703125 L 43 -79.59375 C 43 -60.726562 44.253906 -46.769531 46.765625 -37.71875 C 49.285156 -28.664062 53.941406 -22.441406 60.734375 -19.046875 C 67.523438 -15.648438 77.957031 -13.953125 92.03125 -13.953125 C 107.875 -13.953125 120.570312 -17.660156 130.125 -25.078125 C 139.6875 -32.503906 144.46875 -42.628906 144.46875 -55.453125 C 144.46875 -62.992188 141.890625 -69.78125 136.734375 -75.8125 C 131.578125 -81.851562 125.476562 -87.007812 118.4375 -91.28125 C 111.394531 -95.5625 100.960938 -101.347656 87.140625 -108.640625 C 74.054688 -115.421875 63.363281 -121.640625 55.0625 -127.296875 C 46.769531 -132.960938 39.796875 -139.691406 34.140625 -147.484375 C 28.484375 -155.285156 25.65625 -164.335938 25.65625 -174.640625 C 25.65625 -187.722656 29.488281 -199.609375 37.15625 -210.296875 C 44.820312 -220.984375 55.253906 -229.40625 68.453125 -235.5625 C 81.660156 -241.726562 96.3125 -244.8125 112.40625 -244.8125 C 122.46875 -244.8125 131.769531 -244.117188 140.3125 -242.734375 C 148.863281 -241.347656 155.65625 -239.898438 160.6875 -238.390625 C 165.71875 -236.878906 168.863281 -235.875 170.125 -235.375 L 171.25 -233.109375 C 171 -231.597656 170.367188 -228.078125 169.359375 -222.546875 C 168.359375 -217.015625 167.226562 -209.34375 165.96875 -199.53125 C 164.707031 -189.726562 163.703125 -179.671875 162.953125 -169.359375 L 148.234375 -167.859375 L 145.984375 -169.734375 C 146.234375 -170.742188 146.484375 -173.070312 146.734375 -176.71875 C 146.984375 -180.363281 147.109375 -184.578125 147.109375 -189.359375 C 147.109375 -202.679688 143.835938 -211.859375 137.296875 -216.890625 C 130.765625 -221.921875 119.070312 -224.4375 102.21875 -224.4375 C 88.382812 -224.4375 77.003906 -220.976562 68.078125 -214.0625 C 59.148438 -207.144531 54.6875 -198.53125 54.6875 -188.21875 C 54.6875 -178.164062 59.023438 -169.425781 67.703125 -162 C 76.378906 -154.582031 89.144531 -146.472656 106 -137.671875 C 122.34375 -129.378906 134.785156 -122.53125 143.328125 -117.125 C 151.878906 -111.71875 159.425781 -104.988281 165.96875 -96.9375 C 172.507812 -88.894531 175.78125 -79.59375 175.78125 -69.03125 C 175.78125 -54.945312 171.816406 -42.304688 163.890625 -31.109375 C 155.972656 -19.921875 144.972656 -11.179688 130.890625 -4.890625 C 116.804688 1.390625 100.710938 4.53125 82.609375 4.53125 Z M 82.609375 4.53125 "/></g></g><g style="fill:#ffffff;fill-opacity:1;"><g transform="translate(273.374706, 348.502571)"><path style="stroke:none" d="M 102.21875 3.390625 C 85.125 3.390625 69.972656 -0.378906 56.765625 -7.921875 C 43.566406 -15.460938 33.382812 -26.148438 26.21875 -39.984375 C 19.050781 -53.816406 15.46875 -69.785156 15.46875 -87.890625 C 15.46875 -107.503906 19.929688 -125.164062 28.859375 -140.875 C 37.785156 -156.59375 49.976562 -168.914062 65.4375 -177.84375 C 80.90625 -186.769531 98.195312 -191.234375 117.3125 -191.234375 C 134.664062 -191.234375 150.003906 -187.460938 163.328125 -179.921875 C 176.660156 -172.378906 186.972656 -161.753906 194.265625 -148.046875 C 201.554688 -134.347656 205.203125 -118.445312 205.203125 -100.34375 C 205.203125 -80.726562 200.738281 -63.0625 191.8125 -47.34375 C 182.882812 -31.625 170.5625 -19.238281 154.84375 -10.1875 C 139.125 -1.132812 121.582031 3.390625 102.21875 3.390625 Z M 111.28125 -14.703125 C 129.632812 -14.703125 144.46875 -21.300781 155.78125 -34.5 C 167.101562 -47.707031 172.765625 -65.253906 172.765625 -87.140625 C 172.765625 -103.734375 170.0625 -118.316406 164.65625 -130.890625 C 159.25 -143.460938 151.578125 -153.144531 141.640625 -159.9375 C 131.703125 -166.726562 120.195312 -170.125 107.125 -170.125 C 89.269531 -170.125 74.875 -163.582031 63.9375 -150.5 C 53 -137.425781 47.53125 -119.953125 47.53125 -98.078125 C 47.53125 -81.472656 50.171875 -66.882812 55.453125 -54.3125 C 60.734375 -41.738281 68.210938 -31.992188 77.890625 -25.078125 C 87.578125 -18.160156 98.707031 -14.703125 111.28125 -14.703125 Z M 111.28125 -14.703125 "/></g></g><g style="fill:#ffffff;fill-opacity:1;"><g transform="translate(494.021553, 348.502571)"><path style="stroke:none" d="M 25.265625 -12.828125 C 33.316406 -14.078125 38.785156 -16.398438 41.671875 -19.796875 C 44.566406 -23.191406 46.015625 -29.164062 46.015625 -37.71875 L 46.390625 -157.296875 C 46.390625 -163.578125 45.632812 -167.785156 44.125 -169.921875 C 42.625 -172.066406 39.609375 -173.140625 35.078125 -173.140625 L 24.890625 -172.765625 L 23.765625 -174.265625 L 26.03125 -188.609375 C 27.28125 -188.609375 31.046875 -188.476562 37.328125 -188.21875 C 43.617188 -187.96875 52.046875 -187.84375 62.609375 -187.84375 C 68.148438 -187.84375 75.003906 -188.21875 83.171875 -188.96875 C 91.347656 -189.726562 96.691406 -190.234375 99.203125 -190.484375 L 97.703125 -174.640625 C 90.910156 -173.890625 86.128906 -172.695312 83.359375 -171.0625 C 80.597656 -169.425781 78.960938 -167.347656 78.453125 -164.828125 C 77.953125 -162.316406 77.328125 -157.164062 76.578125 -149.375 C 74.054688 -115.675781 72.796875 -78.332031 72.796875 -37.34375 C 72.796875 -31.050781 73.359375 -26.457031 74.484375 -23.5625 C 75.617188 -20.675781 77.882812 -18.726562 81.28125 -17.71875 C 84.675781 -16.71875 90.019531 -16.21875 97.3125 -16.21875 C 109.382812 -16.21875 118.25 -17.222656 123.90625 -19.234375 C 129.5625 -21.242188 133.835938 -25.203125 136.734375 -31.109375 C 139.628906 -37.023438 142.207031 -46.394531 144.46875 -59.21875 L 161.0625 -61.109375 L 162.203125 -58.84375 C 161.691406 -55.570312 160.492188 -48.085938 158.609375 -36.390625 C 156.722656 -24.703125 155.023438 -12.445312 153.515625 0.375 L 151.640625 2.640625 C 145.847656 2.390625 133.582031 1.882812 114.84375 1.125 C 96.113281 0.375 80.335938 0 67.515625 0 C 57.460938 0 48.097656 0.4375 39.421875 1.3125 C 30.742188 2.195312 25.273438 2.765625 23.015625 3.015625 Z M 25.265625 -12.828125 "/></g></g><g style="fill:#ffffff;fill-opacity:1;"><g transform="translate(645.644515, 348.502571)"><path style="stroke:none" d="M 80.71875 4.90625 C 77.695312 -5.40625 70.84375 -27.472656 60.15625 -61.296875 C 49.46875 -95.117188 39.222656 -126.613281 29.421875 -155.78125 C 27.660156 -161.3125 24.578125 -165.457031 20.171875 -168.21875 C 15.773438 -170.988281 9.804688 -172.628906 2.265625 -173.140625 L 1.515625 -174.265625 L 3.765625 -188.609375 C 6.535156 -188.609375 11.566406 -188.476562 18.859375 -188.21875 C 26.148438 -187.96875 33.316406 -187.84375 40.359375 -187.84375 C 47.898438 -187.84375 56.953125 -188.28125 67.515625 -189.15625 C 78.078125 -190.039062 84.992188 -190.609375 88.265625 -190.859375 L 89.390625 -188.609375 L 88.265625 -175.015625 C 77.203125 -174.265625 69.972656 -173.132812 66.578125 -171.625 C 63.179688 -170.113281 61.484375 -167.347656 61.484375 -163.328125 C 61.484375 -159.304688 66.570312 -139.566406 76.75 -104.109375 C 86.9375 -68.648438 93.921875 -44.507812 97.703125 -31.6875 L 101.09375 -31.6875 C 109.894531 -52.8125 120.140625 -78.960938 131.828125 -110.140625 C 143.523438 -141.328125 149.375 -158.929688 149.375 -162.953125 C 149.375 -166.972656 147.863281 -169.800781 144.84375 -171.4375 C 141.820312 -173.070312 136.664062 -173.890625 129.375 -173.890625 L 114.296875 -173.890625 L 113.53125 -175.40625 L 115.421875 -189.734375 C 118.191406 -189.484375 124.164062 -189.101562 133.34375 -188.59375 C 142.519531 -188.09375 151.382812 -187.84375 159.9375 -187.84375 C 167.726562 -187.84375 174.890625 -187.96875 181.421875 -188.21875 C 187.960938 -188.476562 192.367188 -188.609375 194.640625 -188.609375 L 192 -173.140625 C 185.957031 -172.890625 181.742188 -171.816406 179.359375 -169.921875 C 176.972656 -168.035156 174.644531 -164.203125 172.375 -158.421875 L 108.640625 -1.515625 Z M 80.71875 4.90625 "/></g></g><g style="fill:#ffffff;fill-opacity:1;"><g transform="translate(843.660918, 348.502571)"><path style="stroke:none" d="M 22.25 -12.828125 C 31.5625 -13.828125 37.847656 -16.085938 41.109375 -19.609375 C 44.378906 -23.128906 46.015625 -29.164062 46.015625 -37.71875 L 46.390625 -157.296875 C 46.390625 -163.578125 45.632812 -167.785156 44.125 -169.921875 C 42.625 -172.066406 39.609375 -173.140625 35.078125 -173.140625 L 24.890625 -172.765625 L 24.140625 -174.265625 L 26.40625 -188.609375 C 29.425781 -188.609375 35.332031 -188.476562 44.125 -188.21875 C 52.925781 -187.96875 62.484375 -187.84375 72.796875 -187.84375 C 114.796875 -187.84375 145.851562 -188.972656 165.96875 -191.234375 L 167.09375 -189.359375 C 166.59375 -186.585938 165.460938 -180.296875 163.703125 -170.484375 C 161.941406 -160.679688 160.6875 -150.125 159.9375 -138.8125 L 141.828125 -137.296875 C 141.828125 -138.304688 141.953125 -140.003906 142.203125 -142.390625 C 142.453125 -144.785156 142.578125 -147.238281 142.578125 -149.75 C 142.578125 -156.289062 141.632812 -160.878906 139.75 -163.515625 C 137.863281 -166.160156 133.96875 -167.921875 128.0625 -168.796875 C 122.15625 -169.679688 111.90625 -170.125 97.3125 -170.125 C 90.53125 -170.125 85.878906 -169.929688 83.359375 -169.546875 C 80.847656 -169.171875 79.210938 -168.289062 78.453125 -166.90625 C 77.703125 -165.53125 77.203125 -162.957031 76.953125 -159.1875 L 74.6875 -105.609375 L 105.609375 -105.234375 C 110.140625 -105.234375 116.804688 -105.671875 125.609375 -106.546875 C 134.410156 -107.429688 140.191406 -108 142.953125 -108.25 L 144.46875 -106.375 L 139.9375 -86.75 C 137.175781 -86.75 131.707031 -86.875 123.53125 -87.125 C 115.363281 -87.382812 106.753906 -87.515625 97.703125 -87.515625 C 90.660156 -87.515625 82.738281 -86.882812 73.9375 -85.625 C 73.175781 -66.507812 72.796875 -49.285156 72.796875 -33.953125 C 72.796875 -28.160156 73.234375 -24.132812 74.109375 -21.875 C 74.992188 -19.613281 77.007812 -18.101562 80.15625 -17.34375 C 83.300781 -16.59375 88.519531 -16.21875 95.8125 -16.21875 C 112.15625 -16.21875 123.847656 -16.972656 130.890625 -18.484375 C 137.929688 -19.992188 142.894531 -23.070312 145.78125 -27.71875 C 148.675781 -32.375 151.003906 -40.359375 152.765625 -51.671875 L 169.359375 -53.1875 L 170.875 -51.296875 C 170.113281 -48.535156 168.789062 -42.0625 166.90625 -31.875 C 165.019531 -21.6875 163.578125 -11.0625 162.578125 0 L 160.3125 1.890625 C 153.519531 1.640625 139.4375 1.257812 118.0625 0.75 C 96.6875 0.25 79.335938 0 66.015625 0 C 55.703125 0 46.144531 0.4375 37.34375 1.3125 C 28.539062 2.195312 22.882812 2.765625 20.375 3.015625 Z M 22.25 -12.828125 "/></g></g><g style="fill:#ffffff;fill-opacity:1;"><g transform="translate(1035.265364, 348.502571)"><path style="stroke:none" d="M 162.578125 4.53125 C 157.046875 4.53125 151.382812 2.078125 145.59375 -2.828125 C 139.8125 -7.734375 134.535156 -14.460938 129.765625 -23.015625 L 98.078125 -78.453125 L 73.546875 -78.453125 L 72.796875 -38.09375 C 72.796875 -30.800781 73.296875 -25.582031 74.296875 -22.4375 C 75.304688 -19.300781 77.257812 -17.226562 80.15625 -16.21875 C 83.050781 -15.207031 88.019531 -14.578125 95.0625 -14.328125 L 95.8125 -13.203125 L 92.796875 1.125 C 89.773438 0.875 84.300781 0.6875 76.375 0.5625 C 68.457031 0.4375 60.476562 0.375 52.4375 0.375 C 44.632812 0.375 37.84375 0.5 32.0625 0.75 C 26.28125 1 22.382812 1.253906 20.375 1.515625 L 23.015625 -13.953125 C 32.316406 -15.210938 38.472656 -17.347656 41.484375 -20.359375 C 44.503906 -23.378906 46.015625 -29.039062 46.015625 -37.34375 L 46.390625 -157.671875 C 46.390625 -163.703125 45.632812 -167.785156 44.125 -169.921875 C 42.625 -172.066406 39.734375 -173.140625 35.453125 -173.140625 L 24.890625 -172.765625 L 23.765625 -174.265625 L 26.03125 -188.609375 C 28.539062 -188.609375 33.316406 -188.476562 40.359375 -188.21875 C 47.398438 -187.96875 54.441406 -187.84375 61.484375 -187.84375 C 68.773438 -187.84375 76.566406 -188.03125 84.859375 -188.40625 C 93.160156 -188.789062 98.820312 -188.984375 101.84375 -188.984375 C 122.207031 -188.984375 138.171875 -184.769531 149.734375 -176.34375 C 161.304688 -167.914062 167.09375 -156.285156 167.09375 -141.453125 C 167.09375 -129.878906 163.195312 -119.1875 155.40625 -109.375 C 147.613281 -99.570312 136.675781 -91.53125 122.59375 -85.25 L 154.65625 -36.96875 C 160.6875 -27.914062 166.46875 -21.503906 172 -17.734375 C 177.53125 -13.960938 184.195312 -12.078125 192 -12.078125 L 193.5 -10.1875 L 191.625 1.515625 Z M 104.859375 -95.0625 C 109.640625 -97.070312 113.851562 -99.019531 117.5 -100.90625 C 121.144531 -102.789062 125.226562 -106.75 129.75 -112.78125 C 134.28125 -118.820312 136.546875 -126.617188 136.546875 -136.171875 C 136.546875 -160.566406 118.566406 -172.765625 82.609375 -172.765625 C 80.597656 -172.765625 79.210938 -172.320312 78.453125 -171.4375 C 77.703125 -170.5625 77.328125 -168.738281 77.328125 -165.96875 C 75.316406 -135.289062 74.3125 -112.660156 74.3125 -98.078125 Z M 104.859375 -95.0625 "/></g></g><g style="fill:#ffffff;fill-opacity:1;"><g transform="translate(1234.790394, 348.502571)"><path style="stroke:none" d="M 22.25 -12.828125 C 31.5625 -13.828125 37.847656 -16.085938 41.109375 -19.609375 C 44.378906 -23.128906 46.015625 -29.164062 46.015625 -37.71875 L 46.390625 -157.296875 C 46.390625 -163.578125 45.632812 -167.785156 44.125 -169.921875 C 42.625 -172.066406 39.609375 -173.140625 35.078125 -173.140625 L 24.890625 -172.765625 L 24.140625 -174.265625 L 26.40625 -188.609375 C 29.425781 -188.609375 35.332031 -188.476562 44.125 -188.21875 C 52.925781 -187.96875 62.484375 -187.84375 72.796875 -187.84375 C 114.796875 -187.84375 145.851562 -188.972656 165.96875 -191.234375 L 167.09375 -189.359375 C 166.59375 -186.585938 165.460938 -180.296875 163.703125 -170.484375 C 161.941406 -160.679688 160.6875 -150.125 159.9375 -138.8125 L 141.828125 -137.296875 C 141.828125 -138.304688 141.953125 -140.003906 142.203125 -142.390625 C 142.453125 -144.785156 142.578125 -147.238281 142.578125 -149.75 C 142.578125 -156.289062 141.632812 -160.878906 139.75 -163.515625 C 137.863281 -166.160156 133.96875 -167.921875 128.0625 -168.796875 C 122.15625 -169.679688 111.90625 -170.125 97.3125 -170.125 C 90.53125 -170.125 85.878906 -169.929688 83.359375 -169.546875 C 80.847656 -169.171875 79.210938 -168.289062 78.453125 -166.90625 C 77.703125 -165.53125 77.203125 -162.957031 76.953125 -159.1875 L 74.6875 -105.609375 L 105.609375 -105.234375 C 110.140625 -105.234375 116.804688 -105.671875 125.609375 -106.546875 C 134.410156 -107.429688 140.191406 -108 142.953125 -108.25 L 144.46875 -106.375 L 139.9375 -86.75 C 137.175781 -86.75 131.707031 -86.875 123.53125 -87.125 C 115.363281 -87.382812 106.753906 -87.515625 97.703125 -87.515625 C 90.660156 -87.515625 82.738281 -86.882812 73.9375 -85.625 C 73.175781 -66.507812 72.796875 -49.285156 72.796875 -33.953125 C 72.796875 -28.160156 73.234375 -24.132812 74.109375 -21.875 C 74.992188 -19.613281 77.007812 -18.101562 80.15625 -17.34375 C 83.300781 -16.59375 88.519531 -16.21875 95.8125 -16.21875 C 112.15625 -16.21875 123.847656 -16.972656 130.890625 -18.484375 C 137.929688 -19.992188 142.894531 -23.070312 145.78125 -27.71875 C 148.675781 -32.375 151.003906 -40.359375 152.765625 -51.671875 L 169.359375 -53.1875 L 170.875 -51.296875 C 170.113281 -48.535156 168.789062 -42.0625 166.90625 -31.875 C 165.019531 -21.6875 163.578125 -11.0625 162.578125 0 L 160.3125 1.890625 C 153.519531 1.640625 139.4375 1.257812 118.0625 0.75 C 96.6875 0.25 79.335938 0 66.015625 0 C 55.703125 0 46.144531 0.4375 37.34375 1.3125 C 28.539062 2.195312 22.882812 2.765625 20.375 3.015625 Z M 22.25 -12.828125 "/></g></g></g></svg>